<?xml version="1.0" standalone="no"?>
<svg xmlns="http://www.w3.org/2000/svg" viewBox="0 0 139.18849431818182 47.52" width="139.18849431818182" height="47.52"><rect fill="none" stroke="#e2eef6" stroke-width="3" width="136.18849431818182" height="44.52" x="1.5" y="1.5"></rect><g fill="#78c2d7" color="#78c2d7" transform="translate(12, 12) scale(0.5600001)"><svg width="50.0" height="42.0" x="0.0" y="0.0" viewBox="0 0 50 42"><path fill="currentColor" fill-rule="evenodd" d="M39.414 17.264v20.7H10.35V17.153c0-.048-.011-.093-.015-.14L24.882 4.829 39.439 17.02c-.01.081-.025.16-.025.244m9.711 3.21L26.03 1.132a1.787 1.787 0 0 0-2.294 0L.639 20.475a1.786 1.786 0 0 0 2.293 2.738l3.845-3.221V39.75c0 .986.8 1.785 1.786 1.785H41.2c.986 0 1.786-.799 1.786-1.785V19.992l3.845 3.22a1.784 1.784 0 0 0 2.516-.223 1.785 1.785 0 0 0-.22-2.514m-25.81 2.38a1.785 1.785 0 1 0 3.13 0 1.371 1.371 0 0 1 2.573.656c0 1.665-2.415 3.67-4.14 4.774-1.723-1.098-4.134-3.098-4.134-4.773a1.371 1.371 0 0 1 2.571-.657m-6.142.657c0 4.623 6.164 8.046 6.867 8.42a1.784 1.784 0 0 0 1.681 0c.703-.374 6.868-3.797 6.868-8.42a4.947 4.947 0 0 0-4.942-4.94 4.932 4.932 0 0 0-2.766.848 4.941 4.941 0 0 0-2.767-.848 4.947 4.947 0 0 0-4.941 4.94"></path></svg></g><path fill="#78c2d7" fill-rule="nonzero" d="M5.09 22.08L5.09 22.08Q3.91 22.08 2.96 21.52Q2.02 20.95 1.35 19.97Q0.68 18.98 0.34 17.66Q0 16.34 0.05 14.84L0.05 14.84Q0.09 13.43 0.41 11.79Q0.73 10.15 1.31 8.50Q1.90 6.84 2.73 5.31Q3.56 3.77 4.64 2.60Q5.72 1.43 7.03 0.71Q8.34 0 9.91 0L9.91 0Q10.88 0 11.54 0.39Q12.21 0.77 12.62 1.41Q13.03 2.04 13.20 2.84Q13.36 3.63 13.34 4.45L13.34 4.45Q13.29 5.23 13.11 5.95Q12.94 6.68 12.62 7.25Q12.30 7.83 11.85 8.17Q11.39 8.51 10.80 8.51L10.80 8.51Q10.52 8.48 10.27 8.32L10.27 8.32Q10.03 8.18 9.79 7.90Q9.54 7.62 9.33 7.08L9.33 7.08Q9.96 6.82 10.32 6.18Q10.69 5.53 10.88 4.83L10.88 4.83Q11.09 4.03 11.16 3.05L11.16 3.05Q11.20 2.09 10.76 1.64Q10.31 1.20 9.75 1.20L9.75 1.20Q8.65 1.20 7.43 2.34Q6.21 3.49 5.17 5.45Q4.13 7.41 3.41 10.01Q2.70 12.61 2.58 15.52L2.58 15.52Q2.53 16.83 2.75 17.74Q2.98 18.66 3.39 19.24Q3.80 19.83 4.31 20.09Q4.83 20.34 5.34 20.34L5.34 20.34Q6.16 20.34 6.89 19.99Q7.62 19.64 8.21 19.13Q8.81 18.61 9.25 18.06Q9.68 17.51 9.91 17.09L9.91 17.09Q10.08 16.78 10.27 16.71Q10.45 16.64 10.59 16.75Q10.73 16.85 10.78 17.07Q10.83 17.30 10.69 17.60L10.69 17.60Q10.29 18.40 9.71 19.20Q9.14 19.99 8.43 20.64Q7.71 21.28 6.87 21.68Q6.02 22.08 5.09 22.08ZM25.24 13.05L25.24 13.05Q24.91 13.52 24.40 14.21Q23.88 14.91 23.33 15.60Q22.78 16.29 22.25 16.86Q21.73 17.44 21.38 17.67L21.38 17.67Q21.14 17.81 20.84 17.91Q20.53 18 20.21 18.02Q19.90 18.05 19.62 17.99Q19.34 17.93 19.13 17.79L19.13 17.79Q18.91 17.63 18.77 17.32L18.77 17.32Q18.66 17.06 18.55 16.64Q18.45 16.22 18.47 15.59L18.47 15.59Q17.91 16.52 17.23 17.03Q16.55 17.53 15.94 17.77L15.94 17.77Q15.23 18.02 14.53 18.07L14.53 18.07Q14.20 18.07 13.83 17.85Q13.45 17.63 13.20 17.14Q12.94 16.66 12.87 15.90Q12.80 15.14 13.05 14.09L13.05 14.09Q13.38 12.66 14.10 11.48Q14.81 10.31 15.66 9.48Q16.50 8.65 17.32 8.23Q18.14 7.80 18.68 7.85L18.68 7.85Q19.31 7.97 19.71 8.23L19.71 8.23Q20.04 8.46 20.14 8.92Q20.25 9.38 19.76 10.13L19.76 10.13Q20.09 10.05 20.31 10.03Q20.53 10.01 20.65 10.01L20.65 10.01Q20.79 10.01 20.84 10.03L20.84 10.03Q20.86 10.08 20.86 10.23Q20.86 10.38 20.79 10.78Q20.72 11.18 20.58 11.86Q20.44 12.54 20.20 13.62L20.20 13.62Q20.16 13.83 20.12 14.00Q20.09 14.18 20.05 14.36Q20.02 14.53 19.97 14.77Q19.92 15 19.85 15.35L19.85 15.35Q19.83 15.56 19.84 15.81Q19.85 16.05 19.92 16.27Q19.99 16.48 20.14 16.61Q20.30 16.73 20.58 16.73L20.58 16.73Q20.81 16.73 21.19 16.44Q21.56 16.15 21.98 15.69Q22.41 15.23 22.86 14.68Q23.32 14.13 23.72 13.62Q24.12 13.10 24.43 12.70Q24.75 12.30 24.89 12.12L24.89 12.12Q25.08 11.91 25.27 11.87Q25.45 11.84 25.55 11.98Q25.64 12.12 25.58 12.40Q25.52 12.68 25.24 13.05ZM18.38 14.09L18.38 14.09Q18.49 13.62 18.66 12.98Q18.82 12.35 18.94 11.77Q19.05 11.18 19.11 10.79Q19.17 10.41 19.08 10.43L19.08 10.43Q18.96 10.45 18.82 10.50L18.82 10.50Q18.70 10.55 18.52 10.57Q18.33 10.59 18.14 10.64L18.14 10.64Q18.33 10.27 18.36 10.02Q18.40 9.77 18.38 9.63L18.38 9.63Q18.35 9.47 18.28 9.38L18.28 9.38Q18.02 9.16 17.38 9.71Q16.73 10.27 15.89 11.74L15.89 11.74Q15.54 12.35 15.33 13.04Q15.12 13.73 15.04 14.34Q14.95 14.95 15 15.41Q15.05 15.87 15.19 16.01L15.19 16.01Q15.45 16.27 15.77 16.25Q16.10 16.24 16.44 16.07Q16.78 15.89 17.12 15.61Q17.46 15.33 17.73 15.02Q18 14.72 18.18 14.46Q18.35 14.20 18.38 14.09ZM35.70 13.05L35.70 13.05Q35.37 13.52 34.85 14.21Q34.34 14.91 33.79 15.60Q33.23 16.29 32.71 16.86Q32.18 17.44 31.83 17.67L31.83 17.67Q31.59 17.81 31.29 17.91Q30.98 18 30.67 18.02Q30.35 18.05 30.07 17.99Q29.79 17.93 29.58 17.79L29.58 17.79Q29.37 17.63 29.23 17.32L29.23 17.32Q29.11 17.06 29.00 16.64Q28.90 16.22 28.92 15.59L28.92 15.59Q28.36 16.52 27.68 17.03Q27 17.53 26.39 17.77L26.39 17.77Q25.69 18.02 24.98 18.07L24.98 18.07Q24.66 18.07 24.28 17.85Q23.91 17.63 23.65 17.14Q23.39 16.66 23.32 15.90Q23.25 15.14 23.51 14.09L23.51 14.09Q23.84 12.66 24.55 11.48Q25.27 10.31 26.11 9.48Q26.95 8.65 27.77 8.23Q28.59 7.80 29.13 7.85L29.13 7.85Q29.77 7.97 30.16 8.23L30.16 8.23Q30.49 8.46 30.60 8.92Q30.70 9.38 30.21 10.13L30.21 10.13Q30.54 10.05 30.76 10.03Q30.98 10.01 31.10 10.01L31.10 10.01Q31.24 10.01 31.29 10.03L31.29 10.03Q31.31 10.08 31.31 10.23Q31.31 10.38 31.24 10.78Q31.17 11.18 31.03 11.86Q30.89 12.54 30.66 13.62L30.66 13.62Q30.61 13.83 30.57 14.00Q30.54 14.18 30.50 14.36Q30.47 14.53 30.42 14.77Q30.38 15 30.30 15.35L30.30 15.35Q30.28 15.56 30.29 15.81Q30.30 16.05 30.38 16.27Q30.45 16.48 30.60 16.61Q30.75 16.73 31.03 16.73L31.03 16.73Q31.27 16.73 31.64 16.44Q32.02 16.15 32.44 15.69Q32.86 15.23 33.32 14.68Q33.77 14.13 34.17 13.62Q34.57 13.10 34.89 12.70Q35.20 12.30 35.34 12.12L35.34 12.12Q35.53 11.91 35.72 11.87Q35.91 11.84 36 11.98Q36.09 12.12 36.04 12.40Q35.98 12.68 35.70 13.05ZM28.83 14.09L28.83 14.09Q28.95 13.62 29.11 12.98Q29.27 12.35 29.39 11.77Q29.51 11.18 29.57 10.79Q29.63 10.41 29.53 10.43L29.53 10.43Q29.41 10.45 29.27 10.50L29.27 10.50Q29.16 10.55 28.97 10.57Q28.78 10.59 28.59 10.64L28.59 10.64Q28.78 10.27 28.82 10.02Q28.85 9.77 28.83 9.63L28.83 9.63Q28.80 9.47 28.73 9.38L28.73 9.38Q28.48 9.16 27.83 9.71Q27.19 10.27 26.34 11.74L26.34 11.74Q25.99 12.35 25.78 13.04Q25.57 13.73 25.49 14.34Q25.41 14.95 25.45 15.41Q25.50 15.87 25.64 16.01L25.64 16.01Q25.90 16.27 26.23 16.25Q26.55 16.24 26.89 16.07Q27.23 15.89 27.57 15.61Q27.91 15.33 28.18 15.02Q28.45 14.72 28.63 14.46Q28.80 14.20 28.83 14.09ZM41.58 13.24L41.58 13.24Q41.46 13.97 41.36 14.63Q41.25 15.28 41.23 15.68L41.23 15.68Q41.20 16.27 41.44 16.52Q41.67 16.78 41.95 16.78L41.95 16.78Q42.28 16.78 42.76 16.45Q43.24 16.13 43.78 15.63Q44.32 15.14 44.86 14.55Q45.40 13.97 45.86 13.44Q46.31 12.91 46.63 12.52Q46.95 12.12 47.06 12L47.06 12Q47.20 11.86 47.36 11.84Q47.51 11.81 47.60 11.88Q47.70 11.95 47.70 12.14Q47.70 12.33 47.51 12.61L47.51 12.61Q47.23 13.05 46.78 13.65Q46.34 14.25 45.80 14.88Q45.26 15.52 44.66 16.13Q44.06 16.73 43.46 17.20Q42.87 17.67 42.32 17.96Q41.77 18.26 41.32 18.26L41.32 18.26Q40.99 18.26 40.70 18.07Q40.41 17.88 40.17 17.58Q39.94 17.27 39.81 16.90Q39.68 16.52 39.70 16.15L39.70 16.15Q39.73 15.98 39.77 15.59L39.77 15.59Q38.79 16.69 37.79 17.33Q36.80 17.98 35.88 17.98L35.88 17.98Q35.55 17.98 35.18 17.81Q34.80 17.65 34.51 17.27Q34.22 16.90 34.03 16.29Q33.84 15.68 33.89 14.81L33.89 14.81Q33.96 13.45 34.43 12.23Q34.90 11.02 35.61 10.11Q36.33 9.21 37.23 8.68Q38.13 8.16 39.05 8.16L39.05 8.16Q39.45 8.16 39.77 8.36Q40.10 8.55 40.34 8.87Q40.57 9.19 40.72 9.56Q40.88 9.94 40.95 10.27L40.95 10.27Q41.11 9.59 41.25 8.93Q41.39 8.27 41.53 7.69L41.53 7.69Q41.77 6.82 42.02 5.81L42.02 5.81Q42.26 4.95 42.56 3.82Q42.87 2.70 43.24 1.45L43.24 1.45Q43.48 1.27 43.69 1.17Q43.90 1.08 44.09 1.03L44.09 1.03Q44.30 0.96 44.48 0.96L44.48 0.96Q44.72 0.96 44.91 1.02Q45.09 1.08 45.22 1.32Q45.35 1.57 45.40 2.06Q45.45 2.55 45.40 3.40L45.40 3.40Q45.35 4.43 45.04 5.65Q44.72 6.87 44.20 8.17Q43.69 9.47 43.02 10.77Q42.35 12.07 41.58 13.24ZM40.20 13.55L40.20 13.55Q40.29 13.10 40.37 12.66Q40.45 12.21 40.57 11.74L40.57 11.74Q40.52 11.77 40.49 11.79Q40.45 11.81 40.41 11.84L40.41 11.84Q40.15 11.95 40.05 11.82Q39.96 11.70 39.96 11.41L39.96 11.41Q39.96 11.27 39.94 10.91Q39.91 10.55 39.81 10.16Q39.70 9.77 39.49 9.48Q39.28 9.19 38.91 9.19L38.91 9.19Q38.37 9.19 37.80 9.74Q37.24 10.29 36.75 11.07Q36.26 11.86 35.93 12.75Q35.60 13.64 35.55 14.34L35.55 14.34Q35.51 15.47 35.84 15.96Q36.16 16.45 36.73 16.45L36.73 16.45Q37.15 16.45 37.65 16.13Q38.16 15.80 38.64 15.33Q39.12 14.86 39.53 14.37Q39.94 13.88 40.20 13.55ZM56.34 12.84L56.34 12.84Q55.64 13.88 54.75 14.85Q53.86 15.82 52.86 16.58Q51.87 17.34 50.82 17.81Q49.78 18.28 48.80 18.28L48.80 18.28Q48.28 18.28 47.68 18.04Q47.09 17.79 46.59 17.27Q46.10 16.76 45.81 15.94Q45.52 15.12 45.63 13.95L45.63 13.95Q45.73 12.98 46.23 11.92Q46.73 10.85 47.47 9.96Q48.21 9.07 49.14 8.48Q50.06 7.90 51 7.90L51 7.90Q51.89 7.90 52.29 8.34Q52.69 8.79 52.64 9.45L52.64 9.45Q52.57 10.17 52.23 10.78Q51.89 11.39 51.42 11.88Q50.95 12.38 50.43 12.77Q49.90 13.17 49.43 13.50L49.43 13.50Q48.91 13.85 48.45 14.17Q47.98 14.48 47.63 14.74L47.63 14.74Q47.65 15.33 47.84 15.73Q48.02 16.13 48.30 16.37Q48.59 16.62 48.95 16.72Q49.31 16.83 49.69 16.83L49.69 16.83Q50.48 16.83 51.35 16.32Q52.22 15.82 53.05 15.11Q53.88 14.39 54.60 13.62Q55.31 12.84 55.78 12.28L55.78 12.28Q55.95 12.09 56.12 12.06Q56.30 12.02 56.40 12.11Q56.51 12.19 56.51 12.39Q56.51 12.59 56.34 12.84ZM50.34 9.23L50.34 9.23Q50.06 9.23 49.68 9.52Q49.29 9.80 48.91 10.32Q48.54 10.85 48.21 11.61Q47.88 12.38 47.72 13.36L47.72 13.36Q48 13.15 48.33 12.93Q48.66 12.70 48.98 12.45L48.98 12.45Q49.99 11.67 50.39 11.09Q50.79 10.50 50.84 10.08L50.84 10.08Q50.88 9.63 50.74 9.43Q50.60 9.23 50.34 9.23ZM58.64 16.92L58.64 16.92Q59.37 16.92 60.25 16.35Q61.13 15.77 61.96 15Q62.79 14.23 63.48 13.42Q64.17 12.61 64.52 12.12L64.52 12.12Q64.73 11.81 64.92 11.75Q65.11 11.70 65.20 11.81Q65.30 11.93 65.27 12.18Q65.25 12.42 65.06 12.73L65.06 12.73Q64.90 13.01 64.51 13.54Q64.13 14.06 63.60 14.68Q63.07 15.30 62.40 15.95Q61.73 16.59 61.01 17.12Q60.28 17.65 59.51 17.99Q58.73 18.33 57.98 18.33L57.98 18.33Q56.95 18.33 56.26 17.94Q55.57 17.55 55.16 16.95Q54.75 16.34 54.59 15.60Q54.42 14.86 54.42 14.13L54.42 14.13Q54.42 13.41 54.75 12.33Q55.08 11.25 55.72 10.25Q56.37 9.26 57.35 8.54Q58.34 7.83 59.67 7.83L59.67 7.83Q60.42 7.83 60.95 8.34Q61.48 8.86 61.45 9.75L61.45 9.75Q61.45 10.17 61.31 10.58Q61.17 10.99 60.94 11.31Q60.70 11.63 60.39 11.81Q60.07 12 59.70 12L59.70 12Q59.39 12 59.24 11.78Q59.09 11.55 59.05 11.26Q59.02 10.97 59.05 10.69Q59.09 10.41 59.13 10.31L59.13 10.31Q59.25 10.15 59.39 10.08Q59.53 10.01 59.72 9.91L59.72 9.91Q59.86 9.84 59.94 9.70Q60.02 9.56 60.02 9.40Q60.02 9.23 59.93 9.12Q59.84 9 59.63 9L59.63 9Q59.41 9 58.86 9.34Q58.31 9.68 57.74 10.35Q57.16 11.02 56.72 12.02Q56.27 13.03 56.25 14.37L56.25 14.37Q56.23 15.14 56.46 15.63Q56.70 16.13 57.05 16.41Q57.40 16.69 57.82 16.80Q58.24 16.92 58.64 16.92ZM70.31 13.99L70.31 13.99Q70.08 14.88 69.68 15.66Q69.28 16.43 68.73 16.99Q68.18 17.55 67.49 17.87Q66.80 18.19 65.98 18.19L65.98 18.19Q65.02 18.19 64.46 17.78Q63.91 17.37 63.64 16.76Q63.38 16.15 63.32 15.42Q63.26 14.70 63.26 14.06L63.26 14.06Q63.26 13.62 63.36 13.08Q63.47 12.54 63.66 11.98Q63.84 11.41 64.14 10.85Q64.43 10.29 64.83 9.82L64.83 9.82Q64.97 9.42 65.26 9.12Q65.55 8.81 65.94 8.61Q66.33 8.41 66.77 8.31Q67.22 8.20 67.64 8.20L67.64 8.20Q67.71 8.20 67.77 8.23Q67.83 8.25 67.90 8.27L67.90 8.27Q68.20 8.30 68.66 8.51Q69.12 8.72 69.55 9.14Q69.98 9.56 70.29 10.21Q70.59 10.85 70.59 11.77L70.59 11.77Q70.59 11.95 70.57 12.22Q70.55 12.49 70.52 12.68L70.52 12.68Q71.06 12.47 71.65 12.16Q72.23 11.86 72.79 11.52Q73.34 11.18 73.80 10.83Q74.27 10.48 74.55 10.20L74.55 10.20Q74.79 9.98 74.95 9.96Q75.12 9.94 75.19 10.05Q75.26 10.17 75.21 10.38Q75.16 10.59 74.95 10.85L74.95 10.85Q74.84 10.99 74.36 11.41Q73.88 11.84 73.22 12.33Q72.56 12.82 71.79 13.29Q71.02 13.76 70.31 13.99ZM66.35 10.43L66.35 10.43Q66.28 10.64 66.28 10.88L66.28 10.88Q66.28 11.25 66.33 11.66Q66.38 12.07 66.56 12.40Q66.75 12.73 67.16 12.95Q67.57 13.17 68.30 13.17L68.30 13.17Q68.41 13.17 68.53 13.16Q68.65 13.15 68.77 13.13L68.77 13.13Q68.84 12.82 68.89 12.57Q68.95 12.33 68.95 12.14L68.95 12.14Q69 11.70 68.95 11.23Q68.91 10.76 68.78 10.37Q68.65 9.98 68.45 9.74Q68.25 9.49 67.97 9.49L67.97 9.49Q67.52 9.49 67.11 9.74Q66.70 9.98 66.35 10.43ZM64.85 14.55L64.85 14.55Q64.85 14.98 64.90 15.39Q64.95 15.80 65.09 16.11Q65.23 16.43 65.46 16.63Q65.70 16.83 66.07 16.83L66.07 16.83Q66.49 16.83 66.84 16.63Q67.20 16.43 67.48 16.11Q67.76 15.80 67.98 15.39Q68.20 14.98 68.37 14.53L68.37 14.53Q68.20 14.55 68.05 14.57Q67.90 14.58 67.71 14.58L67.71 14.58Q66.82 14.58 66.18 14.05Q65.53 13.52 65.18 12.70L65.18 12.70Q65.04 13.20 64.95 13.66Q64.85 14.13 64.85 14.55Z" transform="translate(52 12.720937500000002)"></path></svg>